<mxfile host="app.diagrams.net" agent="Mozilla/5.0 (Windows NT 10.0; Win64; x64) AppleWebKit/537.36 (KHTML, like Gecko) Chrome/138.0.0.0 Safari/537.36" version="28.0.6">
  <diagram name="Page-1" id="ZYmc5iJX2hOHFpInnZ_e">
    <mxGraphModel grid="1" page="1" gridSize="10" guides="1" tooltips="1" connect="1" arrows="1" fold="1" pageScale="1" pageWidth="850" pageHeight="1100" math="0" shadow="0">
      <root>
        <mxCell id="0" />
        <mxCell id="1" parent="0" />
        <mxCell id="7xvcpakSN6CSEyzPbETS-13" value="" style="endArrow=blockThin;html=1;rounded=0;strokeWidth=2;endFill=1;exitX=0.875;exitY=0.5;exitDx=0;exitDy=0;exitPerimeter=0;fontFamily=Times New Roman;fontStyle=0;fontSize=14;entryX=0;entryY=0.5;entryDx=0;entryDy=0;" edge="1" parent="1" target="7LX_PkcrKhn5XQ2N8rYp-3">
          <mxGeometry width="50" height="50" relative="1" as="geometry">
            <mxPoint x="240" y="69.5" as="sourcePoint" />
            <mxPoint x="280" y="69.5" as="targetPoint" />
          </mxGeometry>
        </mxCell>
        <mxCell id="7xvcpakSN6CSEyzPbETS-15" value="" style="endArrow=blockThin;html=1;rounded=0;strokeWidth=2;endFill=1;fontFamily=Times New Roman;fontStyle=0;fontSize=14;" edge="1" parent="1">
          <mxGeometry width="50" height="50" relative="1" as="geometry">
            <mxPoint x="344.5" y="80" as="sourcePoint" />
            <mxPoint x="344.5" y="100" as="targetPoint" />
          </mxGeometry>
        </mxCell>
        <mxCell id="7LX_PkcrKhn5XQ2N8rYp-1" value="Input (8,13)&lt;br&gt;Weather, Disaster and Satellite image Sequence" style="rounded=0;whiteSpace=wrap;html=1;fontFamily=Times New Roman;fontSize=14;" vertex="1" parent="1">
          <mxGeometry x="90" y="50" width="150" height="60" as="geometry" />
        </mxCell>
        <mxCell id="7LX_PkcrKhn5XQ2N8rYp-3" value="&lt;span style=&quot;font-family: &amp;quot;Times New Roman&amp;quot;, serif; font-size: 14.6667px; text-align: justify; white-space-collapse: preserve;&quot;&gt;Conv1D (8,64)&lt;/span&gt;" style="rounded=0;whiteSpace=wrap;html=1;fillColor=#ffe6cc;strokeColor=#d79b00;" vertex="1" parent="1">
          <mxGeometry x="270" y="60" width="150" height="20" as="geometry" />
        </mxCell>
        <mxCell id="7LX_PkcrKhn5XQ2N8rYp-4" value="&lt;span style=&quot;font-family: &amp;quot;Times New Roman&amp;quot;, serif; font-size: 14.6667px; text-align: justify; white-space-collapse: preserve;&quot;&gt;MaxPooling1D (4,64)&lt;/span&gt;" style="rounded=0;whiteSpace=wrap;html=1;fillColor=#f8cecc;strokeColor=#b85450;" vertex="1" parent="1">
          <mxGeometry x="270" y="100" width="170" height="20" as="geometry" />
        </mxCell>
        <mxCell id="7LX_PkcrKhn5XQ2N8rYp-5" value="&lt;span style=&quot;font-family: &amp;quot;Times New Roman&amp;quot;, serif; font-size: 14.6667px; text-align: justify; white-space-collapse: preserve;&quot;&gt;Dropout + LayerNorm &lt;/span&gt;&lt;span style=&quot;font-family: &amp;quot;Times New Roman&amp;quot;, serif; font-size: 14.6667px; text-align: justify; white-space-collapse: preserve;&quot;&gt;(4,64)&lt;/span&gt;" style="rounded=0;whiteSpace=wrap;html=1;fillColor=#d5e8d4;strokeColor=#82b366;" vertex="1" parent="1">
          <mxGeometry x="270" y="140" width="180" height="20" as="geometry" />
        </mxCell>
        <mxCell id="7LX_PkcrKhn5XQ2N8rYp-7" value="&lt;span style=&quot;font-family: &amp;quot;Times New Roman&amp;quot;, serif; font-size: 14.6667px; text-align: justify; white-space-collapse: preserve;&quot;&gt;LSTM Layer 1 (4, 64)&lt;/span&gt;" style="rounded=0;whiteSpace=wrap;html=1;fillColor=#dae8fc;strokeColor=#6c8ebf;" vertex="1" parent="1">
          <mxGeometry x="270" y="180" width="170" height="20" as="geometry" />
        </mxCell>
        <mxCell id="7LX_PkcrKhn5XQ2N8rYp-8" value="&lt;span style=&quot;font-family: &amp;quot;Times New Roman&amp;quot;, serif; font-size: 14.6667px; text-align: justify; white-space-collapse: preserve;&quot;&gt;LSTM Layer 2 (32)&lt;/span&gt;" style="rounded=0;whiteSpace=wrap;html=1;fillColor=#dae8fc;strokeColor=#6c8ebf;" vertex="1" parent="1">
          <mxGeometry x="270" y="220" width="150" height="20" as="geometry" />
        </mxCell>
        <mxCell id="7LX_PkcrKhn5XQ2N8rYp-9" value="&lt;span style=&quot;font-family: &amp;quot;Times New Roman&amp;quot;, serif; font-size: 14.6667px; text-align: justify; white-space-collapse: preserve;&quot;&gt;RepeatVector (8, 32)&lt;/span&gt;" style="rounded=0;whiteSpace=wrap;html=1;fillColor=#f5f5f5;fontColor=#333333;strokeColor=#666666;" vertex="1" parent="1">
          <mxGeometry x="560" y="75" width="150" height="20" as="geometry" />
        </mxCell>
        <mxCell id="7LX_PkcrKhn5XQ2N8rYp-10" value="&lt;span style=&quot;font-family: &amp;quot;Times New Roman&amp;quot;, serif; font-size: 14.6667px; text-align: justify; white-space-collapse: preserve;&quot;&gt;LSTM Layer 3 (8, 32)&lt;/span&gt;" style="rounded=0;whiteSpace=wrap;html=1;fillColor=#dae8fc;strokeColor=#6c8ebf;" vertex="1" parent="1">
          <mxGeometry x="560" y="115" width="150" height="20" as="geometry" />
        </mxCell>
        <mxCell id="7LX_PkcrKhn5XQ2N8rYp-11" value="&lt;span style=&quot;font-family: &amp;quot;Times New Roman&amp;quot;, serif; font-size: 14.6667px; text-align: justify; white-space-collapse: preserve;&quot;&gt;LSTM Layer 4 &lt;/span&gt;&lt;span style=&quot;font-family: &amp;quot;Times New Roman&amp;quot;, serif; font-size: 14.6667px; text-align: justify; white-space-collapse: preserve;&quot;&gt; (8, 64)&lt;/span&gt;" style="rounded=0;whiteSpace=wrap;html=1;fillColor=#dae8fc;strokeColor=#6c8ebf;" vertex="1" parent="1">
          <mxGeometry x="560" y="155" width="150" height="20" as="geometry" />
        </mxCell>
        <mxCell id="7LX_PkcrKhn5XQ2N8rYp-12" value="&lt;font style=&quot;font-size: 14px;&quot; face=&quot;Times New Roman&quot;&gt;TimeDistributed Dense (8, 13)&lt;/font&gt;" style="rounded=0;whiteSpace=wrap;html=1;fillColor=#e1d5e7;strokeColor=#9673a6;" vertex="1" parent="1">
          <mxGeometry x="560" y="195" width="150" height="35" as="geometry" />
        </mxCell>
        <mxCell id="7LX_PkcrKhn5XQ2N8rYp-13" value="Latent Space" style="rounded=0;whiteSpace=wrap;html=1;fontSize=14;fontFamily=Times New Roman;textDirection=ltr;rotation=-90;fillColor=#fff2cc;strokeColor=#d6b656;" vertex="1" parent="1">
          <mxGeometry x="460" y="130" width="90" height="30" as="geometry" />
        </mxCell>
        <mxCell id="7LX_PkcrKhn5XQ2N8rYp-16" value="" style="endArrow=none;html=1;rounded=0;" edge="1" parent="1">
          <mxGeometry width="50" height="50" relative="1" as="geometry">
            <mxPoint x="260" y="270" as="sourcePoint" />
            <mxPoint x="260" y="30" as="targetPoint" />
          </mxGeometry>
        </mxCell>
        <mxCell id="7LX_PkcrKhn5XQ2N8rYp-17" value="" style="endArrow=none;html=1;rounded=0;" edge="1" parent="1">
          <mxGeometry width="50" height="50" relative="1" as="geometry">
            <mxPoint x="260" y="270" as="sourcePoint" />
            <mxPoint x="400" y="270" as="targetPoint" />
          </mxGeometry>
        </mxCell>
        <mxCell id="7LX_PkcrKhn5XQ2N8rYp-18" value="" style="endArrow=none;html=1;rounded=0;entryX=0;entryY=0;entryDx=0;entryDy=0;" edge="1" parent="1" target="7LX_PkcrKhn5XQ2N8rYp-13">
          <mxGeometry width="50" height="50" relative="1" as="geometry">
            <mxPoint x="400" y="270" as="sourcePoint" />
            <mxPoint x="450" y="220" as="targetPoint" />
          </mxGeometry>
        </mxCell>
        <mxCell id="7LX_PkcrKhn5XQ2N8rYp-20" value="" style="endArrow=none;html=1;rounded=0;" edge="1" parent="1">
          <mxGeometry width="50" height="50" relative="1" as="geometry">
            <mxPoint x="260" y="30" as="sourcePoint" />
            <mxPoint x="400" y="30" as="targetPoint" />
          </mxGeometry>
        </mxCell>
        <mxCell id="7LX_PkcrKhn5XQ2N8rYp-21" value="" style="endArrow=none;html=1;rounded=0;exitX=1;exitY=0;exitDx=0;exitDy=0;" edge="1" parent="1" source="7LX_PkcrKhn5XQ2N8rYp-13">
          <mxGeometry width="50" height="50" relative="1" as="geometry">
            <mxPoint x="410" y="280" as="sourcePoint" />
            <mxPoint x="400" y="30" as="targetPoint" />
          </mxGeometry>
        </mxCell>
        <mxCell id="7LX_PkcrKhn5XQ2N8rYp-22" value="" style="endArrow=none;html=1;rounded=0;" edge="1" parent="1">
          <mxGeometry width="50" height="50" relative="1" as="geometry">
            <mxPoint x="570" y="50" as="sourcePoint" />
            <mxPoint x="720" y="50" as="targetPoint" />
          </mxGeometry>
        </mxCell>
        <mxCell id="7LX_PkcrKhn5XQ2N8rYp-23" value="" style="endArrow=none;html=1;rounded=0;" edge="1" parent="1">
          <mxGeometry width="50" height="50" relative="1" as="geometry">
            <mxPoint x="570" y="250" as="sourcePoint" />
            <mxPoint x="520" y="190" as="targetPoint" />
          </mxGeometry>
        </mxCell>
        <mxCell id="7LX_PkcrKhn5XQ2N8rYp-24" value="" style="endArrow=none;html=1;rounded=0;" edge="1" parent="1">
          <mxGeometry width="50" height="50" relative="1" as="geometry">
            <mxPoint x="720" y="250" as="sourcePoint" />
            <mxPoint x="720" y="50" as="targetPoint" />
          </mxGeometry>
        </mxCell>
        <mxCell id="7LX_PkcrKhn5XQ2N8rYp-25" value="" style="endArrow=none;html=1;rounded=0;" edge="1" parent="1">
          <mxGeometry width="50" height="50" relative="1" as="geometry">
            <mxPoint x="570" y="249" as="sourcePoint" />
            <mxPoint x="720" y="249" as="targetPoint" />
          </mxGeometry>
        </mxCell>
        <mxCell id="7LX_PkcrKhn5XQ2N8rYp-26" value="" style="endArrow=none;html=1;rounded=0;" edge="1" parent="1">
          <mxGeometry width="50" height="50" relative="1" as="geometry">
            <mxPoint x="520" y="100" as="sourcePoint" />
            <mxPoint x="570" y="50" as="targetPoint" />
          </mxGeometry>
        </mxCell>
        <mxCell id="7LX_PkcrKhn5XQ2N8rYp-27" value="" style="endArrow=blockThin;html=1;rounded=0;strokeWidth=2;endFill=1;fontFamily=Times New Roman;fontStyle=0;fontSize=14;" edge="1" parent="1">
          <mxGeometry width="50" height="50" relative="1" as="geometry">
            <mxPoint x="344.5" y="120" as="sourcePoint" />
            <mxPoint x="344.5" y="140" as="targetPoint" />
          </mxGeometry>
        </mxCell>
        <mxCell id="7LX_PkcrKhn5XQ2N8rYp-28" value="" style="endArrow=blockThin;html=1;rounded=0;strokeWidth=2;endFill=1;fontFamily=Times New Roman;fontStyle=0;fontSize=14;" edge="1" parent="1">
          <mxGeometry width="50" height="50" relative="1" as="geometry">
            <mxPoint x="344.5" y="160" as="sourcePoint" />
            <mxPoint x="344.5" y="180" as="targetPoint" />
          </mxGeometry>
        </mxCell>
        <mxCell id="7LX_PkcrKhn5XQ2N8rYp-29" value="" style="endArrow=blockThin;html=1;rounded=0;strokeWidth=2;endFill=1;fontFamily=Times New Roman;fontStyle=0;fontSize=14;" edge="1" parent="1">
          <mxGeometry width="50" height="50" relative="1" as="geometry">
            <mxPoint x="344.5" y="200" as="sourcePoint" />
            <mxPoint x="344.5" y="220" as="targetPoint" />
          </mxGeometry>
        </mxCell>
        <mxCell id="7LX_PkcrKhn5XQ2N8rYp-30" value="" style="endArrow=blockThin;html=1;rounded=0;strokeWidth=2;endFill=1;fontFamily=Times New Roman;fontStyle=0;fontSize=14;" edge="1" parent="1">
          <mxGeometry width="50" height="50" relative="1" as="geometry">
            <mxPoint x="640.5" y="97" as="sourcePoint" />
            <mxPoint x="640.5" y="117" as="targetPoint" />
          </mxGeometry>
        </mxCell>
        <mxCell id="7LX_PkcrKhn5XQ2N8rYp-31" value="" style="endArrow=blockThin;html=1;rounded=0;strokeWidth=2;endFill=1;fontFamily=Times New Roman;fontStyle=0;fontSize=14;" edge="1" parent="1">
          <mxGeometry width="50" height="50" relative="1" as="geometry">
            <mxPoint x="640.5" y="137" as="sourcePoint" />
            <mxPoint x="640.5" y="157" as="targetPoint" />
          </mxGeometry>
        </mxCell>
        <mxCell id="7LX_PkcrKhn5XQ2N8rYp-32" value="" style="endArrow=blockThin;html=1;rounded=0;strokeWidth=2;endFill=1;fontFamily=Times New Roman;fontStyle=0;fontSize=14;" edge="1" parent="1">
          <mxGeometry width="50" height="50" relative="1" as="geometry">
            <mxPoint x="640.5" y="177" as="sourcePoint" />
            <mxPoint x="640.5" y="197" as="targetPoint" />
          </mxGeometry>
        </mxCell>
        <mxCell id="7LX_PkcrKhn5XQ2N8rYp-33" value="Output&amp;nbsp;&lt;span style=&quot;background-color: transparent; color: light-dark(rgb(0, 0, 0), rgb(255, 255, 255));&quot;&gt;(8, 13)&lt;/span&gt;" style="rounded=0;whiteSpace=wrap;html=1;fontFamily=Times New Roman;fontSize=14;" vertex="1" parent="1">
          <mxGeometry x="740" y="200" width="100" height="22.5" as="geometry" />
        </mxCell>
        <mxCell id="7LX_PkcrKhn5XQ2N8rYp-34" value="" style="endArrow=blockThin;html=1;rounded=0;strokeWidth=2;endFill=1;exitX=0.875;exitY=0.5;exitDx=0;exitDy=0;exitPerimeter=0;fontFamily=Times New Roman;fontStyle=0;fontSize=14;entryX=0;entryY=0.5;entryDx=0;entryDy=0;" edge="1" parent="1">
          <mxGeometry width="50" height="50" relative="1" as="geometry">
            <mxPoint x="710" y="209.5" as="sourcePoint" />
            <mxPoint x="740" y="210" as="targetPoint" />
          </mxGeometry>
        </mxCell>
        <mxCell id="7LX_PkcrKhn5XQ2N8rYp-35" value="&lt;font face=&quot;Times New Roman&quot;&gt;Encoder&lt;/font&gt;" style="text;strokeColor=none;align=center;fillColor=none;html=1;verticalAlign=middle;whiteSpace=wrap;rounded=0;fontSize=16;" vertex="1" parent="1">
          <mxGeometry x="300" y="30" width="60" height="30" as="geometry" />
        </mxCell>
        <mxCell id="7LX_PkcrKhn5XQ2N8rYp-36" value="&lt;font face=&quot;Times New Roman&quot;&gt;Decoder&lt;/font&gt;" style="text;strokeColor=none;align=center;fillColor=none;html=1;verticalAlign=middle;whiteSpace=wrap;rounded=0;fontSize=16;" vertex="1" parent="1">
          <mxGeometry x="600" y="45" width="60" height="30" as="geometry" />
        </mxCell>
      </root>
    </mxGraphModel>
  </diagram>
</mxfile>
